<?xml version="1.0" encoding="UTF-8" standalone="no"?>
<!-- Created with Inkscape (http://www.inkscape.org/) -->

<svg
   width="818.40997"
   height="205.07108"
   viewBox="0 0 216.53764 54.258391"
   version="1.1"
   id="svg697"
   inkscape:version="1.2.2 (732a01da63, 2022-12-09, custom)"
   sodipodi:docname="website_design.svg"
   xml:space="preserve"
   xmlns:inkscape="http://www.inkscape.org/namespaces/inkscape"
   xmlns:sodipodi="http://sodipodi.sourceforge.net/DTD/sodipodi-0.dtd"
   xmlns="http://www.w3.org/2000/svg"
   xmlns:svg="http://www.w3.org/2000/svg"><sodipodi:namedview
     id="namedview699"
     pagecolor="#ffffff"
     bordercolor="#000000"
     borderopacity="0.25"
     inkscape:showpageshadow="2"
     inkscape:pageopacity="0.0"
     inkscape:pagecheckerboard="0"
     inkscape:deskcolor="#d1d1d1"
     inkscape:document-units="px"
     showgrid="false"
     inkscape:zoom="0.4792789"
     inkscape:cx="517.44402"
     inkscape:cy="1248.751"
     inkscape:window-width="1366"
     inkscape:window-height="704"
     inkscape:window-x="0"
     inkscape:window-y="27"
     inkscape:window-maximized="1"
     inkscape:current-layer="layer1"
     showguides="true"><sodipodi:guide
       position="-63.71038,158.92362"
       orientation="1,0"
       id="guide9924"
       inkscape:locked="false" /></sodipodi:namedview><defs
     id="defs694" /><g
     inkscape:label="Layer 1"
     inkscape:groupmode="layer"
     id="layer1"
     transform="translate(-5.4523842,-264.06679)"><g
       id="g10379"
       transform="translate(22.899199,28.415149)"
       inkscape:export-filename="../e782aca4/logo.svg"
       inkscape:export-xdpi="96"
       inkscape:export-ydpi="96"><text
         xml:space="preserve"
         style="font-style:normal;font-variant:normal;font-weight:normal;font-stretch:normal;font-size:63.5998px;font-family:'Roboto Condensed';-inkscape-font-specification:'Roboto Condensed, ';fill:#000000;stroke-width:0.264583"
         x="46.799107"
         y="285.38858"
         id="text10014"><tspan
           sodipodi:role="line"
           id="tspan10012"
           style="font-style:normal;font-variant:normal;font-weight:normal;font-stretch:normal;font-family:'Roboto Condensed';-inkscape-font-specification:'Roboto Condensed, ';stroke-width:0.264583"
           x="46.799107"
           y="285.38858">Vision</tspan></text><g
         id="g10264"><g
           id="g10081"><path
             style="fill:#000000;stroke-width:0.264583"
             d="m -1.1200602,246.891 -6.1564336,4.08636 c 0,0 -2.2086095,5.27431 -2.3407741,5.72545 -0.1321647,0.45111 -4.8773611,14.57552 -4.8773611,14.57552 l -0.541192,12.38661 c 0,0 1.087909,2.37664 1.771057,2.85623 0.683149,0.47958 3.7277521,2.57844 6.1876575,1.18059 2.4599028,-1.39784 5.874782,-3.35092 6.83055761,-4.58271 0.95577556,-1.2318 4.03389579,-3.83064 4.09732439,-4.71099 0.063428,-0.88032 0.1966251,-7.35764 0.1966251,-7.35764 0,0 1.074301,-9.77979 1.074301,-9.77979 l -1.4025643,-5.92402 -2.4835671,-8.05995 z"
             id="path10070" /><path
             style="fill:#000000;stroke-width:0.264583"
             d="m 20.364836,246.891 6.156434,4.08636 c 0,0 2.208609,5.27431 2.340774,5.72545 0.132165,0.45111 4.877361,14.57552 4.877361,14.57552 l 0.541192,12.38661 c 0,0 -1.087909,2.37664 -1.771057,2.85623 -0.683149,0.47958 -3.727752,2.57844 -6.187657,1.18059 -2.459903,-1.39784 -5.874782,-3.35092 -6.830558,-4.58271 -0.955776,-1.2318 -4.033896,-3.83064 -4.097324,-4.71099 -0.06343,-0.88032 -0.196626,-7.35764 -0.196626,-7.35764 0,0 -1.074301,-9.77979 -1.074301,-9.77979 l 1.402565,-5.92402 2.483567,-8.05995 z"
             id="path10072" /><g
             style="fill:#000000;stroke-width:2.92673"
             id="g10010"
             transform="matrix(1.5067108,0,0,1.5067108,-26.469202,227.08154)"><path
               fill-rule="evenodd"
               clip-rule="evenodd"
               d="m 21.8287,22.0907 c 0.0349,-3.5287 0.1029,-10.4004 -5.336,-10.396 -7.45056,0.0062 -12.75117,26.017 -9.55585,28.6681 3.19535,2.6511 9.58025,1.0536 12.77075,-2.1335 2.5759,-2.573 2.3479,-8.5806 2.1843,-12.893 v 0 c -0.0353,-0.9292 -0.0676,-1.7798 -0.0682,-2.5003 -10e-5,-0.2259 0.0023,-0.4759 0.005,-0.7453 z m -5.8549,-3.3955 c -1.1046,9e-4 -2.0008,-0.8938 -2.0017,-1.9984 -9e-4,-1.1046 0.8938,-2.0007 1.9984,-2.0016 1.1046,-9e-4 2.0007,0.8938 2.0016,1.9983 9e-4,1.1046 -0.8938,2.0008 -1.9983,2.0017 z M 8.98851,36.7009 c 9e-4,1.1046 0.89706,1.9993 2.00159,1.9984 1.1046,-9e-4 1.9993,-0.8971 1.9984,-2.0017 -9e-4,-1.1045 -0.8971,-1.9992 -2.0016,-1.9983 -1.1046,9e-4 -1.9993,0.897 -1.99839,2.0016 z M 16.986,33.6944 c -1.1045,9e-4 -2.0007,-0.8938 -2.0016,-1.9984 -9e-4,-1.1046 0.8938,-2.0007 1.9984,-2.0016 1.1045,-9e-4 2.0007,0.8937 2.0016,1.9983 9e-4,1.1046 -0.8938,2.0007 -1.9984,2.0017 z M 9.98113,27.7001 c 9.1e-4,1.1046 0.89707,1.9993 2.00167,1.9983 1.1045,-9e-4 1.9992,-0.897 1.9983,-2.0016 -9e-4,-1.1046 -0.897,-1.9993 -2.0016,-1.9983 -1.1046,9e-4 -1.99927,0.897 -1.99837,2.0016 z m 6.99757,-3.0057 c -1.1046,9e-4 -2.0008,-0.8938 -2.0017,-1.9984 -9e-4,-1.1046 0.8938,-2.0007 1.9984,-2.0016 1.1046,-9e-4 2.0007,0.8937 2.0016,1.9983 9e-4,1.1046 -0.8938,2.0008 -1.9983,2.0017 z"
               fill="#333333"
               id="path9992"
               style="fill:#000000;stroke-width:5.75445" /><path
               fill-rule="evenodd"
               clip-rule="evenodd"
               d="m 26.1244,22.0872 c -0.0407,-3.5286 -0.12,-10.4002 5.3189,-10.4047 7.4506,-0.0061 12.7938,25.996 9.6028,28.6524 -3.1909,2.6563 -9.5785,1.0693 -12.7742,-2.1125 -2.5801,-2.5689 -2.362,-8.5768 -2.2054,-12.8895 0.0338,-0.9293 0.0646,-1.7799 0.0641,-2.5004 -2e-4,-0.2259 -0.0031,-0.4759 -0.0062,-0.7453 z m 5.8493,-3.4051 c 1.1046,-9e-4 1.9993,-0.8971 1.9984,-2.0016 -9e-4,-1.1046 -0.8971,-1.9993 -2.0016,-1.9984 -1.1046,9e-4 -1.9993,0.8971 -1.9984,2.0016 9e-4,1.1046 0.8971,1.9993 2.0016,1.9984 z m 7.0148,17.9943 c 9e-4,1.1045 -0.8938,2.0007 -1.9984,2.0016 -1.1045,9e-4 -2.0007,-0.8938 -2.0016,-1.9984 -9e-4,-1.1045 0.8938,-2.0007 1.9983,-2.0016 1.1046,-9e-4 2.0008,0.8938 2.0017,1.9984 z M 30.986,33.6829 c 1.1046,-9e-4 1.9993,-0.8971 1.9984,-2.0016 -9e-4,-1.1046 -0.8971,-1.9993 -2.0016,-1.9984 -1.1046,9e-4 -1.9993,0.8971 -1.9984,2.0016 9e-4,1.1046 0.8971,1.9993 2.0016,1.9984 z m 6.9951,-6.0057 c 9e-4,1.1045 -0.8938,2.0007 -1.9983,2.0016 -1.1046,9e-4 -2.0008,-0.8938 -2.0017,-1.9983 -9e-4,-1.1046 0.8938,-2.0008 1.9984,-2.0017 1.1045,-9e-4 2.0007,0.8938 2.0016,1.9984 z m -7.0024,-2.9943 c 1.1045,-9e-4 1.9992,-0.8971 1.9983,-2.0016 -9e-4,-1.1046 -0.897,-1.9993 -2.0016,-1.9984 -1.1046,9e-4 -1.9993,0.8971 -1.9984,2.0017 9e-4,1.1045 0.8971,1.9992 2.0017,1.9983 z"
               fill="#333333"
               id="path9994"
               style="fill:#000000;stroke-width:5.75445" /><path
               fill-rule="evenodd"
               clip-rule="evenodd"
               d="m 22.9631,5.68964 c 0,-8e-5 0,-1.2e-4 1,-9.4e-4 1,-8.2e-4 1,-7.8e-4 1,-7e-4 l 0.0119,14.4999 c 0.0017,2.1022 -0.9333,3.3086 -1.9929,3.9279 -0.4972,0.2906 -0.9857,0.4318 -1.3439,0.5017 -0.181,0.0354 -0.3346,0.0537 -0.4476,0.0632 -0.0567,0.0048 -0.1037,0.0074 -0.1394,0.0088 -0.0179,7e-4 -0.033,0.0011 -0.0451,0.0013 l -0.016,3e-4 h -0.0063 -0.0027 -0.0013 c -6e-4,0 -0.0012,0 -0.002,-1 -8e-4,-1 -0.0013,-1 -0.0019,-1 l -10e-4,10e-5 H 20.973 20.9699 20.9668 c 0,0 0.0016,0 0.005,-10e-5 0.0083,-4e-4 0.0257,-0.0012 0.0511,-0.0034 0.051,-0.0043 0.1318,-0.0135 0.232,-0.0331 0.2042,-0.0399 0.4655,-0.118 0.718,-0.2655 0.4396,-0.257 1.0032,-0.8018 1.0021,-2.1996 z"
               fill="#333333"
               id="path9996"
               style="fill:#000000;stroke-width:5.75445" /><path
               fill-rule="evenodd"
               clip-rule="evenodd"
               d="m 24.9632,5.68805 c 0,-8e-5 0,-1.2e-4 -1,6.9e-4 -1,8.2e-4 -1,8.7e-4 -1,9.5e-4 l 0.0119,14.49991 c 0.0017,2.1022 0.9386,3.307 1.9993,3.9246 0.4977,0.2898 0.9863,0.4302 1.3447,0.4995 0.181,0.0351 0.3347,0.0531 0.4477,0.0625 0.0567,0.0046 0.1037,0.0072 0.1394,0.0085 0.0179,7e-4 0.033,0.0011 0.0451,0.0013 l 0.016,2e-4 0.0063,10e-5 h 0.0027 0.0013 c 6e-4,0 0.0011,0 3e-4,-1 -8e-4,-1 -2e-4,-1 3e-4,-1 h 0.0011 0.0019 0.003 0.0031 c 0,0 -0.0016,0 -0.005,-10e-5 -0.0082,-3e-4 -0.0257,-0.0012 -0.0511,-0.0033 -0.051,-0.0042 -0.1318,-0.0133 -0.232,-0.0327 -0.2043,-0.0395 -0.4658,-0.1172 -0.7185,-0.2644 -0.44,-0.2562 -1.0045,-0.8001 -1.0056,-2.1979 z"
               fill="#333333"
               id="path9998"
               style="fill:#000000;stroke-width:5.75445" /></g></g><circle
           style="fill:#ff0000;stroke-width:0.264583"
           id="path10135"
           cx="-3.294241"
           cy="254.83463"
           r="2.4176948" /><circle
           style="fill:#ffffff;stroke-width:0.264583"
           id="circle10137"
           cx="2.1236489"
           cy="259.77188"
           r="1.5009818" /><circle
           style="fill:#ff0000;stroke-width:0.264583"
           id="circle10139"
           cx="-8.4195604"
           cy="263.38406"
           r="1.3949734" /><circle
           style="fill:#ff0000;stroke-width:0.264583"
           id="circle10141"
           cx="1.2688959"
           cy="266.89774"
           r="1.3949734" /><circle
           style="fill:#ffffff;stroke-width:0.264583"
           id="circle10143"
           cx="-9.9155693"
           cy="271.82843"
           r="2.3203616" /><circle
           style="fill:#ff0000;stroke-width:0.264583"
           id="circle10145"
           cx="-24.798441"
           cy="264.16418"
           r="2.4176948"
           transform="scale(-1,1)" /><circle
           style="fill:#ffffff;stroke-width:0.264583"
           id="circle10147"
           cx="-19.38055"
           cy="269.10144"
           r="1.5009818"
           transform="scale(-1,1)" /><circle
           style="fill:#ff0000;stroke-width:0.264583"
           id="circle10149"
           cx="-29.923759"
           cy="272.71362"
           r="1.3949734"
           transform="scale(-1,1)" /><circle
           style="fill:#ff0000;stroke-width:0.264583"
           id="circle10151"
           cx="-20.235304"
           cy="276.22729"
           r="1.3949734"
           transform="scale(-1,1)" /><circle
           style="fill:#ffffff;stroke-width:0.264583"
           id="circle10153"
           cx="-31.419769"
           cy="281.15799"
           r="2.3203616"
           transform="scale(-1,1)" /></g></g></g></svg>
